# xmcd CD database file
#
# Track frame offsets:
#	27658
#	49811
#	80731
#	102990
#	124368
#	145151
#	171634
#	189176
#
# Disc length: 2982 seconds
#
# Revision: 0
# Processed by: cddbd v1.5.2PL0 Copyright (c) Steve Scherf et al.
# Submitted via: CDex 1.70beta2
#
DISCID=820a3608
DTITLE=Zac Hurren Trio - exordium
DYEAR=2007
DGENRE=Jazz
TTITLE0=Johphrow
TTITLE1=Tune No1
TTITLE2=Darcy's First One
TTITLE3=Katie's Song
TTITLE4=Birthday Suit
TTITLE5=Propa Monkay
TTITLE6=Dector Harvotza
TTITLE7=After
EXTD=YEAR: 2007
EXTT0=
EXTT1=
EXTT2=
EXTT3=
EXTT4=
EXTT5=
EXTT6=
EXTT7=
PLAYORDER=
